<svg width="48" height="7" viewBox="0 0 48 7" fill="none" xmlns="http://www.w3.org/2000/svg">
<path fill-rule="evenodd" clip-rule="evenodd" d="M0.292405 4.53544C-0.0981193 4.92597 -0.0981193 5.55913 0.292405 5.94966C0.682929 6.34018 1.31609 6.34018 1.70662 5.94966L3.12083 4.53544L4.53505 5.94966C4.92557 6.34018 5.55873 6.34018 5.94926 5.94966C6.33978 5.55913 6.33978 4.92597 5.94926 4.53544L4.53505 3.12123L5.94926 1.70702C6.33978 1.31649 6.33978 0.683326 5.94926 0.292802C5.55873 -0.0977227 4.92557 -0.0977226 4.53505 0.292802L3.12083 1.70702L1.70662 0.292802C1.31609 -0.0977224 0.682929 -0.0977224 0.292405 0.292802C-0.0981193 0.683326 -0.0981194 1.31649 0.292405 1.70702L1.70662 3.12123L0.292405 4.53544ZM10.2924 4.53544C9.90188 4.92597 9.90188 5.55913 10.2924 5.94966C10.6829 6.34018 11.3161 6.34018 11.7066 5.94966L13.1208 4.53544L14.535 5.94966C14.9256 6.34018 15.5587 6.34018 15.9493 5.94966C16.3398 5.55913 16.3398 4.92597 15.9493 4.53544L14.535 3.12123L15.9493 1.70702C16.3398 1.31649 16.3398 0.683326 15.9493 0.292802C15.5587 -0.0977227 14.9256 -0.0977226 14.535 0.292802L13.1208 1.70702L11.7066 0.292802C11.3161 -0.0977224 10.6829 -0.0977224 10.2924 0.292802C9.90188 0.683326 9.90188 1.31649 10.2924 1.70702L11.7066 3.12123L10.2924 4.53544ZM20.2924 5.94966C19.9019 5.55913 19.9019 4.92597 20.2924 4.53544L21.7066 3.12123L20.2924 1.70702C19.9019 1.31649 19.9019 0.683326 20.2924 0.292802C20.6829 -0.0977224 21.3161 -0.0977224 21.7066 0.292802L23.1208 1.70702L24.535 0.292802C24.9256 -0.0977226 25.5587 -0.0977227 25.9493 0.292802C26.3398 0.683326 26.3398 1.31649 25.9493 1.70702L24.535 3.12123L25.9493 4.53544C26.3398 4.92597 26.3398 5.55913 25.9493 5.94966C25.5587 6.34018 24.9256 6.34018 24.535 5.94966L23.1208 4.53544L21.7066 5.94966C21.3161 6.34018 20.6829 6.34018 20.2924 5.94966ZM30.2924 4.53544C29.9019 4.92597 29.9019 5.55913 30.2924 5.94966C30.6829 6.34018 31.3161 6.34018 31.7066 5.94966L33.1208 4.53544L34.535 5.94966C34.9256 6.34018 35.5587 6.34018 35.9493 5.94966C36.3398 5.55913 36.3398 4.92597 35.9493 4.53544L34.535 3.12123L35.9493 1.70702C36.3398 1.31649 36.3398 0.683326 35.9493 0.292802C35.5587 -0.0977227 34.9256 -0.0977226 34.535 0.292802L33.1208 1.70702L31.7066 0.292802C31.3161 -0.0977224 30.6829 -0.0977224 30.2924 0.292802C29.9019 0.683326 29.9019 1.31649 30.2924 1.70702L31.7066 3.12123L30.2924 4.53544ZM41.2924 5.94966C40.9019 5.55913 40.9019 4.92597 41.2924 4.53544L42.7066 3.12123L41.2924 1.70702C40.9019 1.31649 40.9019 0.683326 41.2924 0.292802C41.6829 -0.0977224 42.3161 -0.0977224 42.7066 0.292802L44.1208 1.70702L45.535 0.292802C45.9256 -0.0977226 46.5587 -0.0977227 46.9493 0.292802C47.3398 0.683326 47.3398 1.31649 46.9493 1.70702L45.535 3.12123L46.9493 4.53544C47.3398 4.92597 47.3398 5.55913 46.9493 5.94966C46.5587 6.34018 45.9256 6.34018 45.535 5.94966L44.1208 4.53544L42.7066 5.94966C42.3161 6.34018 41.6829 6.34018 41.2924 5.94966Z" fill="#57984C"/>
</svg>
